<mxfile host="app.diagrams.net" agent="Mozilla/5.0 (Windows NT 10.0; Win64; x64) AppleWebKit/537.36 (KHTML, like Gecko) Chrome/134.0.0.0 Safari/537.36 Edg/134.0.0.0" version="26.1.0">
  <diagram name="Page-1" id="c7558073-3199-34d8-9f00-42111426c3f3">
    <mxGraphModel dx="786" dy="455" grid="1" gridSize="10" guides="1" tooltips="1" connect="1" arrows="1" fold="1" page="1" pageScale="1" pageWidth="826" pageHeight="1169" background="none" math="0" shadow="0">
      <root>
        <mxCell id="0" />
        <mxCell id="1" parent="0" />
        <mxCell id="25zQKMPqCOvJBnfSX27K-118" style="edgeStyle=orthogonalEdgeStyle;rounded=0;orthogonalLoop=1;jettySize=auto;html=1;exitX=1;exitY=0.5;exitDx=0;exitDy=0;entryX=0;entryY=0.5;entryDx=0;entryDy=0;" edge="1" parent="1" source="25zQKMPqCOvJBnfSX27K-96" target="25zQKMPqCOvJBnfSX27K-97">
          <mxGeometry relative="1" as="geometry">
            <Array as="points">
              <mxPoint x="300" y="375" />
              <mxPoint x="300" y="290" />
            </Array>
          </mxGeometry>
        </mxCell>
        <mxCell id="25zQKMPqCOvJBnfSX27K-119" style="edgeStyle=orthogonalEdgeStyle;rounded=0;orthogonalLoop=1;jettySize=auto;html=1;exitX=1;exitY=0.5;exitDx=0;exitDy=0;" edge="1" parent="1" source="25zQKMPqCOvJBnfSX27K-96" target="25zQKMPqCOvJBnfSX27K-99">
          <mxGeometry relative="1" as="geometry">
            <Array as="points">
              <mxPoint x="300" y="375" />
              <mxPoint x="300" y="510" />
            </Array>
          </mxGeometry>
        </mxCell>
        <mxCell id="25zQKMPqCOvJBnfSX27K-96" value="Login" style="rounded=0;whiteSpace=wrap;html=1;" vertex="1" parent="1">
          <mxGeometry x="140" y="345" width="120" height="60" as="geometry" />
        </mxCell>
        <mxCell id="25zQKMPqCOvJBnfSX27K-97" value="Professor" style="ellipse;whiteSpace=wrap;html=1;" vertex="1" parent="1">
          <mxGeometry x="320" y="250" width="120" height="80" as="geometry" />
        </mxCell>
        <mxCell id="25zQKMPqCOvJBnfSX27K-98" value="Cadastro" style="shape=hexagon;perimeter=hexagonPerimeter2;whiteSpace=wrap;html=1;fixedSize=1;" vertex="1" parent="1">
          <mxGeometry y="280" width="120" height="80" as="geometry" />
        </mxCell>
        <mxCell id="25zQKMPqCOvJBnfSX27K-99" value="Aluno" style="ellipse;whiteSpace=wrap;html=1;" vertex="1" parent="1">
          <mxGeometry x="320" y="460" width="120" height="80" as="geometry" />
        </mxCell>
        <mxCell id="25zQKMPqCOvJBnfSX27K-111" style="edgeStyle=orthogonalEdgeStyle;rounded=0;orthogonalLoop=1;jettySize=auto;html=1;exitX=1;exitY=0.5;exitDx=0;exitDy=0;exitPerimeter=0;entryX=0;entryY=0.5;entryDx=0;entryDy=0;" edge="1" parent="1" source="25zQKMPqCOvJBnfSX27K-100" target="25zQKMPqCOvJBnfSX27K-108">
          <mxGeometry relative="1" as="geometry" />
        </mxCell>
        <mxCell id="25zQKMPqCOvJBnfSX27K-100" value="DB/Autenticação" style="shape=cylinder3;whiteSpace=wrap;html=1;boundedLbl=1;backgroundOutline=1;size=15;" vertex="1" parent="1">
          <mxGeometry x="513" y="310" width="100" height="110" as="geometry" />
        </mxCell>
        <mxCell id="25zQKMPqCOvJBnfSX27K-101" value="Visualizar e Criar Métricas Autônomas" style="rounded=0;whiteSpace=wrap;html=1;" vertex="1" parent="1">
          <mxGeometry x="513" y="180" width="120" height="60" as="geometry" />
        </mxCell>
        <mxCell id="25zQKMPqCOvJBnfSX27K-102" value="&lt;div&gt;Visualizar e Entregar Atividade&lt;/div&gt;" style="rounded=0;whiteSpace=wrap;html=1;" vertex="1" parent="1">
          <mxGeometry x="513" y="490" width="120" height="60" as="geometry" />
        </mxCell>
        <mxCell id="25zQKMPqCOvJBnfSX27K-104" value="Visualizar e Criar Atividade" style="rounded=0;whiteSpace=wrap;html=1;" vertex="1" parent="1">
          <mxGeometry x="513" y="100" width="120" height="60" as="geometry" />
        </mxCell>
        <mxCell id="25zQKMPqCOvJBnfSX27K-105" value="Visualizar e Postar notas" style="rounded=0;whiteSpace=wrap;html=1;" vertex="1" parent="1">
          <mxGeometry x="513" y="20" width="120" height="60" as="geometry" />
        </mxCell>
        <mxCell id="25zQKMPqCOvJBnfSX27K-115" style="edgeStyle=orthogonalEdgeStyle;rounded=0;orthogonalLoop=1;jettySize=auto;html=1;exitX=0;exitY=0.5;exitDx=0;exitDy=0;" edge="1" parent="1" source="25zQKMPqCOvJBnfSX27K-106" target="25zQKMPqCOvJBnfSX27K-102">
          <mxGeometry relative="1" as="geometry" />
        </mxCell>
        <mxCell id="25zQKMPqCOvJBnfSX27K-117" style="edgeStyle=orthogonalEdgeStyle;rounded=0;orthogonalLoop=1;jettySize=auto;html=1;exitX=0;exitY=0.5;exitDx=0;exitDy=0;entryX=1;entryY=0.5;entryDx=0;entryDy=0;" edge="1" parent="1" source="25zQKMPqCOvJBnfSX27K-106" target="25zQKMPqCOvJBnfSX27K-116">
          <mxGeometry relative="1" as="geometry" />
        </mxCell>
        <mxCell id="25zQKMPqCOvJBnfSX27K-106" value="Email Aluno" style="ellipse;whiteSpace=wrap;html=1;aspect=fixed;" vertex="1" parent="1">
          <mxGeometry x="730" y="460" width="80" height="80" as="geometry" />
        </mxCell>
        <mxCell id="25zQKMPqCOvJBnfSX27K-112" style="edgeStyle=orthogonalEdgeStyle;rounded=0;orthogonalLoop=1;jettySize=auto;html=1;exitX=0;exitY=0.5;exitDx=0;exitDy=0;" edge="1" parent="1" source="25zQKMPqCOvJBnfSX27K-107" target="25zQKMPqCOvJBnfSX27K-101">
          <mxGeometry relative="1" as="geometry" />
        </mxCell>
        <mxCell id="25zQKMPqCOvJBnfSX27K-113" style="edgeStyle=orthogonalEdgeStyle;rounded=0;orthogonalLoop=1;jettySize=auto;html=1;exitX=0;exitY=0.5;exitDx=0;exitDy=0;entryX=1;entryY=0.5;entryDx=0;entryDy=0;" edge="1" parent="1" source="25zQKMPqCOvJBnfSX27K-107" target="25zQKMPqCOvJBnfSX27K-104">
          <mxGeometry relative="1" as="geometry" />
        </mxCell>
        <mxCell id="25zQKMPqCOvJBnfSX27K-114" style="edgeStyle=orthogonalEdgeStyle;rounded=0;orthogonalLoop=1;jettySize=auto;html=1;exitX=0;exitY=0.5;exitDx=0;exitDy=0;entryX=1;entryY=0.5;entryDx=0;entryDy=0;" edge="1" parent="1" source="25zQKMPqCOvJBnfSX27K-107" target="25zQKMPqCOvJBnfSX27K-105">
          <mxGeometry relative="1" as="geometry" />
        </mxCell>
        <mxCell id="25zQKMPqCOvJBnfSX27K-107" value="Email Professor" style="ellipse;whiteSpace=wrap;html=1;aspect=fixed;" vertex="1" parent="1">
          <mxGeometry x="730" y="190" width="80" height="80" as="geometry" />
        </mxCell>
        <mxCell id="25zQKMPqCOvJBnfSX27K-109" style="edgeStyle=orthogonalEdgeStyle;rounded=0;orthogonalLoop=1;jettySize=auto;html=1;exitX=1;exitY=1;exitDx=0;exitDy=0;" edge="1" parent="1" source="25zQKMPqCOvJBnfSX27K-108" target="25zQKMPqCOvJBnfSX27K-106">
          <mxGeometry relative="1" as="geometry" />
        </mxCell>
        <mxCell id="25zQKMPqCOvJBnfSX27K-110" style="edgeStyle=orthogonalEdgeStyle;rounded=0;orthogonalLoop=1;jettySize=auto;html=1;exitX=1;exitY=0;exitDx=0;exitDy=0;" edge="1" parent="1" source="25zQKMPqCOvJBnfSX27K-108" target="25zQKMPqCOvJBnfSX27K-107">
          <mxGeometry relative="1" as="geometry" />
        </mxCell>
        <mxCell id="25zQKMPqCOvJBnfSX27K-108" value="ID/Criado pela instituição" style="rhombus;whiteSpace=wrap;html=1;" vertex="1" parent="1">
          <mxGeometry x="633" y="322.5" width="120" height="85" as="geometry" />
        </mxCell>
        <mxCell id="25zQKMPqCOvJBnfSX27K-116" value="Visualizar as PRÓPRIAS notas" style="rounded=0;whiteSpace=wrap;html=1;" vertex="1" parent="1">
          <mxGeometry x="513" y="570" width="120" height="50" as="geometry" />
        </mxCell>
        <mxCell id="25zQKMPqCOvJBnfSX27K-120" style="edgeStyle=orthogonalEdgeStyle;rounded=0;orthogonalLoop=1;jettySize=auto;html=1;exitX=1;exitY=0.5;exitDx=0;exitDy=0;entryX=0.05;entryY=0.624;entryDx=0;entryDy=0;entryPerimeter=0;" edge="1" parent="1" source="25zQKMPqCOvJBnfSX27K-97" target="25zQKMPqCOvJBnfSX27K-100">
          <mxGeometry relative="1" as="geometry" />
        </mxCell>
        <mxCell id="25zQKMPqCOvJBnfSX27K-121" style="edgeStyle=orthogonalEdgeStyle;rounded=0;orthogonalLoop=1;jettySize=auto;html=1;exitX=1;exitY=0.5;exitDx=0;exitDy=0;entryX=0.023;entryY=0.624;entryDx=0;entryDy=0;entryPerimeter=0;" edge="1" parent="1" source="25zQKMPqCOvJBnfSX27K-99" target="25zQKMPqCOvJBnfSX27K-100">
          <mxGeometry relative="1" as="geometry">
            <Array as="points">
              <mxPoint x="480" y="500" />
              <mxPoint x="480" y="379" />
            </Array>
          </mxGeometry>
        </mxCell>
      </root>
    </mxGraphModel>
  </diagram>
</mxfile>
